#!OML:ASF F:\VICON\USERDATA\INSTALL\rory7\rory7.ASF
:FULLY-SPECIFIED
:DEGREES
1403
root 0.493867 18.8244 2.55737 -3.98795 -6.17193 1.37046
lowerback 5.1662 0.730334 -3.4944
upperback 0.419101 0.728528 -1.56267
thorax -2.48912 0.391701 0.2989
lowerneck -4.432 -8.62902 -10.5349
upperneck 15.3264 -11.6338 5.8459
head 6.3472 -5.87334 2.68253
rclavicle -5.84551e-015 8.74653e-015
rhumerus -29.4793 43.5954 -98.2269
rradius 98.0446
rwrist -3.32784
rhand -50.3834 10.0027
rfingers 7.12502
rthumb -22.957 -18.6504
lclavicle -5.84551e-015 8.74653e-015
lhumerus -32.0671 -40.7615 101.361
lradius 112.233
lwrist 19.2956
lhand -35.6633 47.0343
lfingers 7.12502
lthumb -8.78488 76.8314
rfemur 8.45207 20.3291 17.3581
rtibia 7.1263
rfoot -10.5145 -22.8865
rtoes -7.25298
lfemur 6.95173 -9.88823 -19.7
ltibia 9.40183
lfoot -11.654 19.6134
ltoes -5.46831
1404
root 0.495867 18.8243 2.5611 -3.99191 -6.20184 1.39102
lowerback 5.07773 0.725182 -3.49039
upperback 0.416319 0.725732 -1.58124
thorax -2.44203 0.389616 0.278861
lowerneck -4.50701 -8.61849 -10.4563
upperneck 15.4184 -11.6065 5.73624
head 6.37582 -5.86193 2.63405
rclavicle 6.10642e-015 -1.39149e-014
rhumerus -29.4321 43.5605 -98.2954
rradius 98.1233
rwrist -3.20858
rhand -50.4331 10.2173
rfingers 7.12502
rthumb -23.0047 -18.4299
lclavicle 6.10642e-015 -1.39149e-014
lhumerus -31.8766 -40.9427 101.265
lradius 112.238
lwrist 19.3128
lhand -36.4138 47.1281
lfingers 7.12502
lthumb -9.50906 76.8935
rfemur 8.446 20.3614 17.3294
rtibia 7.14374
rfoot -10.5295 -22.8323
rtoes -7.19869
lfemur 6.99467 -9.84749 -19.7389
ltibia 9.36403
lfoot -11.6697 19.5764
ltoes -5.31642
1405
root 0.498514 18.8265 2.56441 -3.99013 -6.20782 1.42123
lowerback 5.01841 0.715628 -3.45793
upperback 0.387631 0.715776 -1.62292
thorax -2.43713 0.384328 0.219023
lowerneck -4.50638 -8.60453 -10.4335
upperneck 15.4936 -11.5887 5.70434
head 6.39484 -5.85469 2.62127
rclavicle 3.70236e-015 3.97569e-015
rhumerus -29.4624 43.5365 -98.4195
rradius 98.1279
rwrist -2.73652
rhand -50.59 10.4145
rfingers 7.12502
rthumb -23.1553 -18.2139
lclavicle 3.70236e-015 3.97569e-015
lhumerus -31.831 -41.1287 101.241
lradius 112.264
lwrist 19.3988
lhand -37.1531 46.7558
lfingers 7.12502
lthumb -10.2224 76.4874
rfemur 8.44706 20.3703 17.286
rtibia 7.15122
rfoot -10.5571 -22.7715
rtoes -7.25721
lfemur 7.02835 -9.83025 -19.7848
ltibia 9.33666
lfoot -11.7142 19.5156
ltoes -5.04685
1406
root 0.500862 18.8294 2.5644 -3.97573 -6.19123 1.46034
lowerback 4.95527 0.711028 -3.48779
upperback 0.371914 0.710606 -1.6233
thorax -2.41817 0.381979 0.236347
lowerneck -4.46713 -8.57727 -10.5568
upperneck 15.5237 -11.5581 5.78818
head 6.40761 -5.84213 2.67074
rclavicle 1.50331e-015 -3.57812e-015
rhumerus -29.44 43.551 -98.4024
rradius 98.1637
rwrist -2.25449
rhand -50.5534 10.7971
rfingers 7.12502
rthumb -23.1202 -17.8356
lclavicle 1.50331e-015 -3.57812e-015
lhumerus -31.7899 -41.5466 101.354
lradius 112.519
lwrist 19.9804
lhand -37.9879 46.7365
lfingers 7.12502
lthumb -11.0276 76.4268
rfemur 8.43169 20.3569 17.2256
rtibia 7.14037
rfoot -10.5359 -22.7838
rtoes -7.31167
lfemur 7.01785 -9.83536 -19.8343
ltibia 9.34003
lfoot -11.7684 19.4814
ltoes -4.81223
1407
root 0.50202 18.829 2.56363 -3.98599 -6.19124 1.49088
lowerback 4.95548 0.721352 -3.52875
upperback 0.336165 0.721025 -1.61692
thorax -2.45606 0.388438 0.264732
lowerneck -4.38034 -8.55231 -10.6211
upperneck 15.5184 -11.5277 5.79844
head 6.39302 -5.83228 2.69068
rclavicle 7.56003e-015 8.34896e-015
rhumerus -29.4475 43.5203 -98.3901
rradius 98.2706
rwrist -1.8531
rhand -50.5452 10.7024
rfingers 7.12502
rthumb -23.1123 -17.9314
lclavicle 7.56003e-015 8.34896e-015
lhumerus -31.3567 -41.5652 101.056
lradius 112.135
lwrist 19.2278
lhand -38.6091 48.2397
lfingers 7.12502
lthumb -11.6267 77.8971
rfemur 8.42305 20.3598 17.192
rtibia 7.13942
rfoot -10.4419 -22.8281
rtoes -7.49142
lfemur 7.0066 -9.82546 -19.8709
ltibia 9.35791
lfoot -11.7409 19.4995
ltoes -4.89275
